<?xml version="1.0" encoding="UTF-8" standalone="no"?>
<!-- Created with Inkscape (http://www.inkscape.org/) -->

<svg
   xmlns:dc="http://purl.org/dc/elements/1.1/"
   xmlns:cc="http://creativecommons.org/ns#"
   xmlns:rdf="http://www.w3.org/1999/02/22-rdf-syntax-ns#"
   xmlns:svg="http://www.w3.org/2000/svg"
   xmlns="http://www.w3.org/2000/svg"
   xmlns:sodipodi="http://sodipodi.sourceforge.net/DTD/sodipodi-0.dtd"
   xmlns:inkscape="http://www.inkscape.org/namespaces/inkscape"
   width="408.91901mm"
   height="246.09778mm"
   viewBox="0 0 1448.9256 872"
   id="svg7187"
   version="1.1"
   inkscape:version="0.91 r13725"
   sodipodi:docname="logo.svg">
  <defs
     id="defs7189" />
  <sodipodi:namedview
     id="base"
     pagecolor="#ffffff"
     bordercolor="#666666"
     borderopacity="1.0"
     inkscape:pageopacity="0.0"
     inkscape:pageshadow="2"
     inkscape:zoom="0.16"
     inkscape:cx="-484.76192"
     inkscape:cy="-2027.7538"
     inkscape:document-units="px"
     inkscape:current-layer="layer1"
     showgrid="false"
     fit-margin-top="0"
     fit-margin-left="0"
     fit-margin-right="0"
     fit-margin-bottom="0"
     inkscape:window-width="1920"
     inkscape:window-height="1040"
     inkscape:window-x="0"
     inkscape:window-y="22"
     inkscape:window-maximized="1" />
  <metadata
     id="metadata7192">
    <rdf:RDF>
      <cc:Work
         rdf:about="">
        <dc:format>image/svg+xml</dc:format>
        <dc:type
           rdf:resource="http://purl.org/dc/dcmitype/StillImage" />
        <dc:title />
      </cc:Work>
    </rdf:RDF>
  </metadata>
  <g
     inkscape:label="Layer 1"
     inkscape:groupmode="layer"
     id="layer1"
     transform="translate(261.60568,-350.64792)">
    <path
       style="fill:#333333;fill-opacity:1;stroke:none;stroke-width:10;stroke-linecap:round;stroke-linejoin:round;stroke-miterlimit:4;stroke-dasharray:none;stroke-opacity:1"
       d="m -2140.842,1016.8383 c -64.1474,0 -115.7895,51.6421 -115.7895,115.7895 l 0,368.421 c 0,64.1474 51.6421,115.7895 115.7895,115.7895 64.1473,0 115.7894,-51.6421 115.7894,-115.7895 l 0,-368.421 c 0,-64.1474 -51.6421,-115.7895 -115.7894,-115.7895 z m -0.7525,36.0917 c 43.7368,0 78.9474,35.5809 78.9474,79.78 l 0,366.7537 c 0,44.1989 -35.2106,79.7821 -78.9474,79.7821 -43.7369,0 -78.9474,-35.5832 -78.9474,-79.7821 l 0,-366.7537 c 0,-44.1991 35.2105,-79.78 78.9474,-79.78 z"
       id="rect11738-7-6-7"
       inkscape:connector-curvature="0" />
    <path
       style="fill:#2b0000;fill-opacity:1;stroke:none;stroke-width:10;stroke-linecap:round;stroke-linejoin:round;stroke-miterlimit:4;stroke-dasharray:none;stroke-opacity:1"
       d="m 333.71094,1717.2969 c -26.65946,0.4867 -48.21991,19.4775 -64.56844,38.7325 -14.84307,14.843 -29.68614,29.6861 -44.52922,44.5292 -27.55161,-26.4334 -51.62944,-57.346 -84.2168,-77.918 -28.4011,-12.2271 -63.196369,-1.1893 -82.203121,22.4453 -22.542835,22.3387 -28.636139,61.9216 -8.095403,87.5383 16.913184,22.846 40.477468,39.485 58.996494,60.8973 3.06702,4.0836 10.01657,8.1179 10.75028,12.2079 -26.400886,27.4522 -57.405356,51.429 -77.541996,84.2218 -12.063892,29.3377 0.336926,64.758 25.074219,83.5078 23.431575,22.1915 64.197397,25.8533 88.696177,3.3625 22.26787,-18.0679 39.72996,-41.1666 61.27648,-60.0129 2.53101,-2.5918 4.65157,-5.7444 7.83789,-7.5957 27.68497,26.5217 51.75318,57.7984 84.76562,78.0683 29.3395,12.0649 64.75608,-0.3402 83.50977,-25.0742 22.18971,-23.4299 25.84386,-64.1886 3.36132,-88.687 -18.07469,-22.2805 -41.17579,-39.7631 -60.01171,-61.2837 -2.60228,-2.528 -5.73527,-4.6589 -7.59961,-7.8418 26.5422,-27.6993 57.84925,-51.7757 78.09961,-84.834 12.51076,-30.481 -1.40372,-67.2769 -27.9943,-85.4661 -12.73076,-10.4523 -28.93325,-17.3847 -45.60726,-16.7975 z"
       id="rect11738-0"
       inkscape:connector-curvature="0" />
    <path
       style="fill:#2b0000;fill-opacity:1;stroke:none;stroke-width:10;stroke-linecap:round;stroke-linejoin:round;stroke-miterlimit:4;stroke-dasharray:none;stroke-opacity:1"
       d="m 501.96094,1711.5488 c -43.16436,-0.6947 -79.94841,43.3683 -72.76563,85.6778 0.6754,81.8014 -2.49147,163.7353 1.95313,245.4414 9.99637,42.7891 63.94618,68.971 103.23573,48.2501 30.18441,-14.0749 47.33442,-49.5455 42.17941,-82.0606 -0.94564,-80.6837 2.64692,-161.5234 -2.17678,-242.0948 -8.11698,-31.7978 -39.59116,-55.8728 -72.42586,-55.2139 z"
       id="rect11738-7-62"
       inkscape:connector-curvature="0" />
    <path
       style="fill:#2b0000;fill-opacity:1;stroke:none;stroke-width:10;stroke-linecap:round;stroke-linejoin:round;stroke-miterlimit:4;stroke-dasharray:none;stroke-opacity:1"
       d="m 666.58398,1711.709 c -43.23645,-0.9832 -80.03722,43.3087 -72.81836,85.5918 0.88843,82.2244 -2.8735,164.6165 2.3086,246.7187 10.78606,42.3789 64.85545,67.5071 103.70703,46.5176 29.75762,-14.376 46.40227,-49.5264 41.33633,-81.7793 -0.80452,-80.2769 2.44687,-160.6813 -1.95022,-240.8663 -7.37874,-32.4069 -39.41679,-57.0495 -72.58338,-56.1825 z"
       id="rect11738-7-3-6"
       inkscape:connector-curvature="0" />
    <rect
       style="fill:#e6e6e6;fill-opacity:1;stroke:none;stroke-width:6.5999999;stroke-linecap:round;stroke-linejoin:round;stroke-miterlimit:4;stroke-dasharray:none;stroke-opacity:1"
       id="rect7170"
       width="1448.9257"
       height="872"
       x="-261.60568"
       y="350.64792"
       ry="5.4800801"
       inkscape:export-xdpi="90"
       inkscape:export-ydpi="90" />
    <path
       style="fill:#333333;fill-opacity:1;stroke:none;stroke-width:6.5999999;stroke-linecap:round;stroke-linejoin:round;stroke-miterlimit:4;stroke-dasharray:none;stroke-opacity:1"
       d="m 17.492627,789.06228 a 60.082285,60.082285 0 0 0 -60.083223,60.08322 60.082285,60.082285 0 0 0 0.06609,1.91407 60.082285,60.082285 0 0 0 -14.751595,-1.91407 60.082285,60.082285 0 0 0 -60.083229,60.0796 60.082285,60.082285 0 0 0 30.79756,52.43448 l 0,98.45952 0.191841,0 a 102.80747,101.80609 0 0 0 102.72265,99.4515 102.80747,101.80609 0 0 0 78.345749,-36.0566 c 1.57249,3.8503 3.92387,7.4607 7.05867,10.5955 l 7.70406,7.7076 c 12.57978,12.5798 32.83663,12.5798 45.41641,0 l 26.21356,-26.2135 27.86574,27.8657 c 12.57997,12.5798 32.83663,12.5798 45.4166,0 l 7.70387,-7.7076 c 0.23471,-0.2347 0.43429,-0.4904 0.66031,-0.7302 4.15593,9.2775 13.43381,15.7214 24.29211,15.7214 l 9.0428,0 c 12.21423,0 22.43092,-8.1482 25.59763,-19.3209 2.92817,11.5341 13.31211,20.029 25.78209,20.029 l 9.04272,0 c 14.75626,0 26.63401,-11.8778 26.63401,-26.6339 l 0,-126.57979 c 0,-14.75744 -11.87775,-26.63784 -26.63401,-26.63784 l -9.04272,0 c -12.21425,0 -22.431,8.15195 -25.59761,19.32464 -2.92823,-11.53409 -13.31222,-20.03271 -25.78211,-20.03271 l -9.0428,0 c -11.35414,0 -20.97662,7.04715 -24.82327,17.01234 l -7.12495,-7.12873 c -12.57997,-12.57978 -32.83662,-12.57978 -45.41659,0 l -28.57382,28.57379 -26.92164,-26.92161 c -9.60284,-9.60265 -23.66901,-11.85074 -35.3891,-6.79319 l 0,-12.24368 a 60.082285,60.082285 0 0 0 34.23107,-54.17522 60.082285,60.082285 0 0 0 -60.08322,-60.08319 60.082285,60.082285 0 0 0 -15.456088,2.0504 60.082285,60.082285 0 0 0 0.103851,-2.04681 60.082285,60.082285 0 0 0 -60.083224,-60.08322 z m -0.350262,19.78932 a 41.637181,41.637181 0 0 1 41.636413,41.63622 41.637181,41.637181 0 0 1 -32.195392,40.50802 l 0,82.37287 c 21.951695,2.48526 42.050496,13.48858 55.971282,30.64269 l 0,-53.60721 a 41.637181,41.637181 0 0 1 -32.217485,-40.50803 41.637181,41.637181 0 0 1 41.636224,-41.63618 41.637181,41.637181 0 0 1 41.636413,41.63618 41.637181,41.637181 0 0 1 -32.17311,40.50425 l 0,106.67999 c -3.8e-4,46.5542 -37.739915,84.2938 -84.294345,84.2941 -46.55424,-3e-4 -84.293966,-37.7399 -84.294343,-84.2941 -0.0013,-37.1212 -5.67e-4,-71.75142 0,-106.67999 a 41.637181,41.637181 0 0 1 -32.22126,-40.50783 41.637181,41.637181 0 0 1 41.636412,-41.63638 41.637181,41.637181 0 0 1 41.636413,41.63638 41.637181,41.637181 0 0 1 -32.169524,40.50047 l 0,53.72905 c 13.9104,-17.17606 34.010712,-28.20148 55.9712811,-30.70184 l 0,-82.43178 A 41.637181,41.637181 0 0 1 -24.494047,850.48782 41.637181,41.637181 0 0 1 17.142365,808.8516 Z m -0.11518,20.64109 a 20.995764,20.995764 0 0 0 -20.9989076,20.99513 20.995764,20.995764 0 0 0 20.9989076,20.99532 20.995764,20.995764 0 0 0 20.99532,-20.99532 20.995764,20.995764 0 0 0 -20.99532,-20.99513 z m 74.827452,58.7409 a 21.663344,21.663344 0 0 0 -21.662609,21.66257 21.663344,21.663344 0 0 0 21.662609,21.6628 21.663344,21.663344 0 0 0 21.662803,-21.6628 21.663344,21.663344 0 0 0 -21.662803,-21.66257 z m -149.710231,0.32817 a 21.329555,21.329555 0 0 0 -21.327077,21.33082 21.329555,21.329555 0 0 0 21.327077,21.33085 21.329555,21.329555 0 0 0 21.330854,-21.33085 21.329555,21.329555 0 0 0 -21.330854,-21.33082 z M 291.20047,989.36313 c 9.61946,0 17.3626,7.74295 17.3626,17.36257 l 0,109.4162 c 0,9.6198 -7.74314,17.3664 -17.3626,17.3664 -9.61964,0 -17.3626,-7.7468 -17.3626,-17.3664 l 0,-109.4162 c 0,-9.61962 7.74296,-17.36257 17.3626,-17.36257 z m 59.41569,0 c 9.61953,0 17.36262,7.74295 17.36262,17.36257 l 0,109.4162 c 0,9.6196 -7.74309,17.3664 -17.36262,17.3664 -9.61953,0 -17.36633,-7.7468 -17.36633,-17.3664 l 0,-109.4162 c 0,-9.61962 7.7468,-17.36257 17.36633,-17.36257 z m -220.80182,2.78793 c 4.43842,0 8.87588,1.70316 12.27692,5.10419 l 39.62642,39.62265 39.62283,-39.62265 c 6.80207,-6.80206 17.75573,-6.80206 24.55779,0 6.80207,6.80185 6.80207,17.75195 0,24.55405 l -39.62642,39.6264 39.62642,39.6229 c 6.80207,6.802 6.80207,17.7555 0,24.5576 -6.80206,6.802 -17.75572,6.802 -24.55779,0 l -39.62283,-39.6265 -39.62642,39.6265 c -6.80207,6.802 -17.75195,6.802 -24.55402,0 -6.80207,-6.8021 -6.80207,-17.7556 0,-24.5576 l 39.62283,-39.6229 -39.62283,-39.6264 c -6.80207,-6.8021 -6.80207,-17.7522 0,-24.55405 3.40103,-3.40103 7.8385,-5.10419 12.2771,-5.10419 z M 17.027185,1022.1817 a 34.89806,34.89806 0 0 0 -34.898545,34.8987 34.89806,34.89806 0 0 0 34.898545,34.8948 34.89806,34.89806 0 0 0 34.894957,-34.8948 34.89806,34.89806 0 0 0 -34.894957,-34.8987 z"
       id="rect6551"
       inkscape:connector-curvature="0" />
    <path
       style="fill:#333333;fill-opacity:1;stroke:none;stroke-width:8;stroke-linecap:round;stroke-linejoin:round;stroke-miterlimit:4;stroke-dasharray:none;stroke-opacity:1"
       d="m 527.59506,546.35292 c -9.9775,0 -18.0098,8.0323 -18.0098,18.0098 l 0,64.9805 c 0,9.9774 8.0323,18.0097 18.0098,18.0097 l 17.4648,0 0,43.3457 0.1153,0 a 55,53.298172 0 0 0 -0.1153,3.1485 55,53.298172 0 0 0 55,53.2988 55,53.298172 0 0 0 55,-53.2988 55,53.298172 0 0 0 -0.1621,-3.1485 l 0.1621,0 0,-43.3457 99.96098,0 c 9.9774,0 18.0097,-8.0323 18.0097,-18.0097 l 0,-64.9805 c 0,-9.9775 -8.0323,-18.0098 -18.0097,-18.0098 l -227.42578,0 z m 165.5625,13.7305 c 4.3091,0 7.7793,3.4702 7.7793,7.7793 l 0,57.9824 c 0,4.3091 -3.4702,7.7774 -7.7793,7.7774 -4.3091,0 -7.7774,-3.4683 -7.7774,-7.7774 l 0,-57.9824 c 0,-4.3091 3.4683,-7.7793 7.7774,-7.7793 z m 23.68748,0 c 4.3091,0 7.7793,3.4702 7.7793,7.7793 l 0,57.9824 c 0,4.3091 -3.4702,7.7774 -7.7793,7.7774 -4.30908,0 -7.77738,-3.4683 -7.77738,-7.7774 l 0,-57.9824 c 0,-4.3091 3.4683,-7.7793 7.77738,-7.7793 z m 23.6894,0 c 4.3091,0 7.7774,3.4702 7.7774,7.7793 l 0,57.9824 c 0,4.3091 -3.4683,7.7774 -7.7774,7.7774 -4.3091,0 -7.7793,-3.4683 -7.7793,-7.7774 l 0,-57.9824 c 0,-4.3091 3.4702,-7.7793 7.7793,-7.7793 z m -140.46088,1.3184 a 22.051207,22.051207 0 0 1 22.0508,22.0507 22.051207,22.051207 0 0 1 -17.0508,21.4532 l 0,43.625 c 11.6257,1.3162 22.2701,7.1437 29.6426,16.2285 l 0,-28.3906 a 22.051207,22.051207 0 0 1 -17.0625,-21.4532 22.051207,22.051207 0 0 1 22.0508,-22.0508 22.051207,22.051207 0 0 1 22.0507,22.0508 22.051207,22.051207 0 0 1 -17.039,21.4512 l 0,56.498 c -2e-4,24.6554 -19.9872,44.6425 -44.6426,44.6426 -24.6554,-2e-4 -44.6424,-19.9873 -44.6426,-44.6426 -7e-4,-19.6594 -3e-4,-37.9998 0,-56.498 a 22.051207,22.051207 0 0 1 -17.0644,-21.4531 22.051207,22.051207 0 0 1 22.0507,-22.0508 22.051207,22.051207 0 0 1 22.0508,22.0508 22.051207,22.051207 0 0 1 -17.0371,21.4492 l 0,28.4551 c 7.367,-9.0966 18.0122,-14.9357 29.6426,-16.2598 l 0,-43.6562 a 22.051207,22.051207 0 0 1 -17.0508,-21.4493 22.051207,22.051207 0 0 1 22.0508,-22.0507 z m -0.061,10.9316 a 11.119435,11.119435 0 0 0 -11.1211,11.1191 11.119435,11.119435 0 0 0 11.1211,11.1192 11.119435,11.119435 0 0 0 11.1191,-11.1192 11.119435,11.119435 0 0 0 -11.1191,-11.1191 z m 39.6289,31.1094 a 11.472988,11.472988 0 0 0 -11.4727,11.4726 11.472988,11.472988 0 0 0 11.4727,11.4727 11.472988,11.472988 0 0 0 11.4726,-11.4727 11.472988,11.472988 0 0 0 -11.4726,-11.4726 z m -79.2872,0.1738 a 11.296212,11.296212 0 0 0 -11.2949,11.2969 11.296212,11.296212 0 0 0 11.2949,11.2969 11.296212,11.296212 0 0 0 11.2969,-11.2969 11.296212,11.296212 0 0 0 -11.2969,-11.2969 z m 39.6583,70.7656 a 18.482143,18.482143 0 0 0 -18.4825,18.4824 18.482143,18.482143 0 0 0 18.4825,18.4805 18.482143,18.482143 0 0 0 18.4804,-18.4805 18.482143,18.482143 0 0 0 -18.4804,-18.4824 z"
       id="rect6007-2"
       inkscape:connector-curvature="0" />
    <path
       style="fill:#333333;fill-opacity:1;stroke:none;stroke-width:5;stroke-linecap:round;stroke-linejoin:round;stroke-miterlimit:4;stroke-dasharray:none;stroke-opacity:1"
       d="m 316.09852,498.59312 a 36.604338,36.800936 0 0 0 -36.47266,34.1504 50.753914,51.026507 0 0 0 -23.20117,-5.6992 50.753914,51.026507 0 0 0 -50.6914,49.7891 l -0.3711,0 c -19.42675,0 -35.0664,15.723 -35.0664,35.2539 0,19.5312 15.63965,35.2558 35.0664,35.2558 l 0.85352,0 0,43.3555 0.11523,0 a 55,53.298172 0 0 0 -0.11523,3.1484 55,53.298172 0 0 0 55,53.2989 55,53.298172 0 0 0 55,-53.2989 55,53.298172 0 0 0 -0.16211,-3.1484 l 0.16211,0 0,-43.3555 83.35937,0 c 19.42675,0 35.06641,-15.7246 35.06641,-35.2558 0,-16.8194 -11.60124,-30.8032 -27.22852,-34.3653 a 47.370319,47.62474 0 0 0 0.96485,-9.5468 47.370319,47.62474 0 0 0 -47.36914,-47.625 47.370319,47.62474 0 0 0 -10.87305,1.3301 36.604338,36.800936 0 0 0 -34.03711,-23.2872 z m -54.86914,62.8086 a 22.051207,22.051207 0 0 1 22.05078,22.0508 22.051207,22.051207 0 0 1 -17.05078,21.4531 l 0,43.625 c 11.6257,1.3162 22.27008,7.1438 29.64258,16.2286 l 0,-28.3907 a 22.051207,22.051207 0 0 1 -17.0625,-21.4531 22.051207,22.051207 0 0 1 22.05078,-22.0508 22.051207,22.051207 0 0 1 22.05078,22.0508 22.051207,22.051207 0 0 1 -17.03906,21.4512 l 0,56.498 c -2e-4,24.6554 -19.98718,44.6425 -44.64258,44.6426 -24.6553,-2e-4 -44.64238,-19.9873 -44.64258,-44.6426 -7e-4,-19.6594 -3e-4,-37.9998 0,-56.498 a 22.051207,22.051207 0 0 1 -17.06445,-21.4531 22.051207,22.051207 0 0 1 22.05078,-22.0508 22.051207,22.051207 0 0 1 22.05078,22.0508 22.051207,22.051207 0 0 1 -17.03711,21.4492 l 0,28.455 c 7.367,-9.0964 18.01218,-14.9356 29.64258,-16.2597 l 0,-43.6563 a 22.051207,22.051207 0 0 1 -17.05078,-21.4492 22.051207,22.051207 0 0 1 22.05078,-22.0508 z m -0.0606,10.9317 a 11.119435,11.119435 0 0 0 -11.12109,11.1191 11.119435,11.119435 0 0 0 11.12109,11.1192 11.119435,11.119435 0 0 0 11.11914,-11.1192 11.119435,11.119435 0 0 0 -11.11914,-11.1191 z m 39.62891,31.1093 a 11.472988,11.472988 0 0 0 -11.47266,11.4727 11.472988,11.472988 0 0 0 11.47266,11.4727 11.472988,11.472988 0 0 0 11.47266,-11.4727 11.472988,11.472988 0 0 0 -11.47266,-11.4727 z m -79.28711,0.1739 a 11.296212,11.296212 0 0 0 -11.29492,11.2969 11.296212,11.296212 0 0 0 11.29492,11.2968 11.296212,11.296212 0 0 0 11.29688,-11.2968 11.296212,11.296212 0 0 0 -11.29688,-11.2969 z m 39.6582,70.7656 a 18.482143,18.482143 0 0 0 -18.48242,18.4824 18.482143,18.482143 0 0 0 18.48242,18.4805 18.482143,18.482143 0 0 0 18.48047,-18.4805 18.482143,18.482143 0 0 0 -18.48047,-18.4824 z"
       id="path5327-9-4-7-6"
       inkscape:connector-curvature="0" />
    <path
       style="fill:#333333;fill-opacity:1;stroke:none;stroke-width:6.5999999;stroke-linecap:round;stroke-linejoin:round;stroke-miterlimit:4;stroke-dasharray:none;stroke-opacity:1"
       d="m 931.91898,914.61652 c -16.8409,0 -31.1131,10.4526 -36.8186,25.2334 l -10.5683,-10.5736 c -18.6589,-18.6589 -48.7047,-18.6589 -67.3636,0 l -42.3818,42.3819 -39.9313,-39.9313 c -18.6589,-18.6589 -48.705,-18.6589 -67.3639,0 l -11.4269,11.4326 c -18.6592,18.6583 -18.6592,48.699 0,67.35788 l 39.9315,39.9369 -38.8813,38.8811 c -18.6591,18.6588 -18.6591,48.699 0,67.3582 l 11.427,11.4323 c 18.6589,18.6588 48.7049,18.6588 67.3638,0 l 38.8811,-38.8811 41.3316,41.3317 c 18.6589,18.6588 48.7047,18.6588 67.3635,0 l 11.427,-11.4324 c 0.3481,-0.3481 0.6442,-0.7273 0.9791,-1.083 6.1643,13.7608 19.9259,23.3186 36.0311,23.3186 l 13.4127,0 c 18.1166,0 33.2705,-12.0857 37.9675,-28.6575 4.3432,17.1079 19.74522,29.7078 38.24112,29.7078 l 13.4126,0 c 21.8872,0 39.5048,-17.6176 39.5048,-39.5045 l 0,-187.74838 c 0,-21.8872 -17.6176,-39.5104 -39.5048,-39.5104 l -13.4126,0 c -18.1167,0 -33.27052,12.0914 -37.96752,28.6632 -4.3433,-17.1079 -19.745,-29.7134 -38.2411,-29.7134 l -13.4127,0 z m 6.1867,27.3832 c 14.2683,0 25.7529,11.485 25.7529,25.753 l 0,162.29618 c 0,14.2683 -11.4846,25.7529 -25.7529,25.7529 -14.268,0 -25.7529,-11.4846 -25.7529,-25.7529 l 0,-162.29618 c 0,-14.268 11.4849,-25.753 25.7529,-25.753 z m 88.12792,0 c 14.2683,0 25.753,11.485 25.753,25.753 l 0,162.29618 c 0,14.2683 -11.4847,25.7529 -25.753,25.7529 -14.268,0 -25.7582,-11.4846 -25.7582,-25.7529 l 0,-162.29618 c 0,-14.268 11.4902,-25.753 25.7582,-25.753 z m -327.50262,4.1408 c 6.5835,0 13.1654,2.5206 18.2099,7.5651 l 58.7756,58.77028 58.7702,-58.77028 c 5.0446,-5.0445 11.6318,-7.5651 18.2153,-7.5651 6.5832,0 13.1651,2.5206 18.2096,7.5651 10.0891,10.0892 10.0891,26.3305 0,36.4196 l -58.7756,58.77558 58.7756,58.7702 c 10.0891,10.0891 10.0891,26.3361 0,36.4249 -10.0888,10.0891 -26.3358,10.0891 -36.4249,0 l -58.7702,-58.7756 -58.7756,58.7756 c -10.0891,10.0891 -26.3307,10.0891 -36.4195,0 -10.0892,-10.0888 -10.0892,-26.3358 0,-36.4249 l 58.7699,-58.7702 -58.7699,-58.77558 c -10.0892,-10.0891 -10.0892,-26.3304 0,-36.4196 5.0445,-5.0445 11.6264,-7.5651 18.2096,-7.5651 z m 193.6835,65.47108 0,77.6801 -38.8373,-38.8374 38.8373,-38.8427 z"
       id="rect6590-3"
       inkscape:connector-curvature="0" />
    <path
       style="fill:#333333;fill-opacity:1;stroke:none;stroke-width:6.5999999;stroke-linecap:round;stroke-linejoin:round;stroke-miterlimit:4;stroke-dasharray:none;stroke-opacity:1"
       d="m -36.236387,384.92331 a 58.738656,58.738656 0 0 0 -58.7395,58.73961 58.738656,58.738656 0 0 0 0.065,1.8711 58.738656,58.738656 0 0 0 -14.421703,-1.8711 58.738656,58.738656 0 0 0 -58.7396,58.7359 58.738656,58.738656 0 0 0 30.109,51.262 l 0,96.2576 0.1874,0 a 100.50837,99.52939 0 0 0 100.425603,97.2275 100.50837,99.52939 0 0 0 100.5083,-99.5314 100.50837,99.52939 0 0 0 -0.3712,-8.0111 l 0,-84.2409 a 58.738656,58.738656 0 0 0 33.46556,-52.9636 58.738656,58.738656 0 0 0 -58.73976,-58.7396 58.738656,58.738656 0 0 0 -15.1102,2.0045 58.738656,58.738656 0 0 0 0.1052,-2.0008 58.738656,58.738656 0 0 0 -58.7396,-58.73961 l 0,0 z m -0.3389,19.3466 a 40.706043,40.706043 0 0 1 40.7053003,40.70531 40.706043,40.706043 0 0 1 -31.4754003,39.6019 l 0,80.5308 c 21.4608003,2.4297 41.1101,13.1869 54.7196,29.9575 l 0,-52.4085 a 40.706043,40.706043 0 0 1 -31.4969997,-39.6019 40.706043,40.706043 0 0 1 40.7050997,-40.7053 40.706043,40.706043 0 0 1 40.7053,40.7053 40.706043,40.706043 0 0 1 -31.4536,39.5984 l 0,104.2941 c -4e-4,45.5131 -36.8959997,82.4089 -82.4093,82.4093 -45.5131,-4e-4 -82.408903,-36.8962 -82.409203,-82.4093 0,-36.291 -6e-4,-70.1466 0,-104.2941 a 40.706043,40.706043 0 0 1 -31.5005,-39.6021 40.706043,40.706043 0 0 1 40.7051,-40.7051 40.706043,40.706043 0 0 1 40.705303,40.7051 40.706043,40.706043 0 0 1 -31.450203,39.5949 l 0,52.5273 c 13.599403,-16.7919 33.250203,-27.5706 54.719603,-30.015 l 0,-80.5886 a 40.706043,40.706043 0 0 1 -31.4754,-39.5947 40.706043,40.706043 0 0 1 40.7053,-40.70531 z m -0.1144,20.1797 a 20.526232,20.526232 0 0 0 -20.5293,20.52561 20.526232,20.526232 0 0 0 20.5293,20.5256 20.526232,20.526232 0 0 0 20.5256,-20.5256 20.526232,20.526232 0 0 0 -20.5256,-20.52561 z m 73.154,57.42701 a 21.178883,21.178883 0 0 0 -21.1783,21.1784 21.178883,21.178883 0 0 0 21.1783,21.1784 21.178883,21.178883 0 0 0 21.1819,-21.1784 21.178883,21.178883 0 0 0 -21.1819,-21.1784 z m -146.362203,0.3212 a 20.852559,20.852559 0 0 0 -20.8501,20.8535 20.852559,20.852559 0 0 0 20.8501,20.8538 20.852559,20.852559 0 0 0 20.853803,-20.8538 20.852559,20.852559 0 0 0 -20.853803,-20.8535 z m 73.208203,130.6316 a 34.117629,34.117629 0 0 0 -34.1181,34.1182 34.117629,34.117629 0 0 0 34.1181,34.1145 34.117629,34.117629 0 0 0 34.1146003,-34.1145 34.117629,34.117629 0 0 0 -34.1146003,-34.1182 z"
       id="rect6551-3"
       inkscape:connector-curvature="0" />
    <path
       inkscape:connector-curvature="0"
       style="fill:#333333;fill-opacity:1;stroke:none;stroke-width:6.5999999;stroke-linecap:round;stroke-linejoin:round;stroke-miterlimit:4;stroke-dasharray:none;stroke-opacity:1"
       d="m 874.09711,511.44866 c -7.80417,0 -14.08789,6.2837 -14.08789,14.0879 l 0,100.9394 c 0,7.80416 6.28372,14.08786 14.08789,14.08786 l 13.51562,0 0,50.1348 0.11524,0 a 55,53.298172 0 0 0 -0.11524,3.1484 55,53.298172 0 0 0 55,53.2989 55,53.298172 0 0 0 55.00003,-53.2989 55,53.298172 0 0 0 -0.1621,-3.1484 l 0.1621,0 0,-50.1348 13.51564,0 c 7.8042,0 14.0859,-6.2837 14.0859,-14.08786 l 0,-49.707 5.3946,0 c 0.6194,0 1.2221,-0.065 1.8105,-0.1699 l 0,49.8769 c 0,7.80416 6.2837,14.08786 14.0879,14.08786 l 50.8262,0 c 7.8041,0 14.0859,-6.2837 14.0859,-14.08786 l 0,-100.9394 c 0,-7.8042 -6.2818,-14.0879 -14.0859,-14.0879 l -50.8262,0 c -7.8042,0 -14.0879,6.2837 -14.0879,14.0879 l 0,27.7129 c -0.5884,-0.1048 -1.1912,-0.168 -1.8105,-0.168 l -5.3946,0 0,-27.5449 c 0,-7.8042 -6.2817,-14.0879 -14.0859,-14.0879 l -50.82621,0 c -7.80417,0 -14.08789,6.2837 -14.08789,14.0879 l 0,26.9766 a 31,31 0 0 0 -3.60352,-0.2325 31,31 0 0 0 -3.60156,0.2481 l 0,-26.9922 c 0,-7.8042 -6.28177,-14.0879 -14.08594,-14.0879 l -50.82617,0 z m 3.49219,13.0098 43.83984,0 c 3.03596,0 5.48047,2.4445 5.48047,5.4804 0,3.036 -2.44451,5.4805 -5.48047,5.4805 l -43.83984,0 c -3.03597,0 -5.48047,-2.4445 -5.48047,-5.4805 0,-3.0359 2.4445,-5.4804 5.48047,-5.4804 z m 86.20507,0 43.84183,0 c 3.036,0 5.4785,2.4445 5.4785,5.4804 0,3.036 -2.4425,5.4805 -5.4785,5.4805 l -43.84183,0 c -3.03596,0 -5.48047,-2.4445 -5.48047,-5.4805 0,-3.0359 2.44451,-5.4804 5.48047,-5.4804 z m 86.20513,0 43.8418,0 c 3.0359,0 5.4785,2.4445 5.4785,5.4804 0,3.036 -2.4426,5.4805 -5.4785,5.4805 l -43.8418,0 c -3.036,0 -5.4805,-2.4445 -5.4805,-5.4805 0,-3.0359 2.4445,-5.4804 5.4805,-5.4804 z m -172.4102,14.9375 43.83984,0 c 3.03596,0 5.48047,2.4445 5.48047,5.4804 0,3.036 -2.44451,5.4805 -5.48047,5.4805 l -43.83984,0 c -3.03597,0 -5.48047,-2.4445 -5.48047,-5.4805 0,-3.0359 2.4445,-5.4804 5.48047,-5.4804 z m 86.20507,0 43.84183,0 c 3.036,0 5.4785,2.4445 5.4785,5.4804 0,3.036 -2.4425,5.4805 -5.4785,5.4805 l -43.84183,0 c -3.03596,0 -5.48047,-2.4445 -5.48047,-5.4805 0,-3.0359 2.44451,-5.4804 5.48047,-5.4804 z m 86.20513,0 43.8418,0 c 3.0359,0 5.4785,2.4445 5.4785,5.4804 0,3.036 -2.4426,5.4805 -5.4785,5.4805 l -43.8418,0 c -3.036,0 -5.4805,-2.4445 -5.4805,-5.4805 0,-3.0359 2.4445,-5.4804 5.4805,-5.4804 z m -172.4102,14.9375 43.83984,0 c 3.03596,0 5.48047,2.4445 5.48047,5.4804 0,3.036 -2.44451,5.4805 -5.48047,5.4805 l -43.83984,0 c -3.03597,0 -5.48047,-2.4445 -5.48047,-5.4805 0,-3.0359 2.4445,-5.4804 5.48047,-5.4804 z m 86.20507,0 43.84183,0 c 3.036,0 5.4785,2.4445 5.4785,5.4804 0,3.036 -2.4425,5.4805 -5.4785,5.4805 l -43.84183,0 c -3.03596,0 -5.48047,-2.4445 -5.48047,-5.4805 0,-3.0359 2.44451,-5.4804 5.48047,-5.4804 z m 86.20513,0 43.8418,0 c 3.0359,0 5.4785,2.4445 5.4785,5.4804 0,3.036 -2.4426,5.4805 -5.4785,5.4805 l -43.8418,0 c -3.036,0 -5.4805,-2.4445 -5.4805,-5.4805 0,-3.0359 2.4445,-5.4804 5.4805,-5.4804 z m -107.37505,7.0683 a 22.051207,22.051207 0 0 1 22.05078,22.0508 22.051207,22.051207 0 0 1 -17.05078,21.4531 l 0,43.62496 c 11.6257,1.3162 22.27008,7.1437 29.64258,16.2285 l 0,-28.3906 a 22.051207,22.051207 0 0 1 -17.0625,-21.45306 22.051207,22.051207 0 0 1 22.05078,-22.0508 22.051207,22.051207 0 0 1 22.05079,22.0508 22.051207,22.051207 0 0 1 -17.03907,21.45116 l 0,56.498 c -2e-4,24.6554 -19.98718,44.6425 -44.64258,44.6426 -24.65531,-2e-4 -44.64238,-19.9873 -44.64258,-44.6426 -7e-4,-19.6594 -3e-4,-37.9998 0,-56.498 a 22.051207,22.051207 0 0 1 -17.06445,-21.45316 22.051207,22.051207 0 0 1 22.05078,-22.0507 22.051207,22.051207 0 0 1 22.05078,22.0507 22.051207,22.051207 0 0 1 -17.03711,21.44926 l 0,28.455 c 7.367,-9.0966 18.01218,-14.9356 29.64258,-16.2597 l 0,-43.65626 a 22.051207,22.051207 0 0 1 -17.05078,-21.4492 22.051207,22.051207 0 0 1 22.05078,-22.0508 z m -0.0606,10.9317 a 11.119435,11.119435 0 0 0 -11.12109,11.1191 11.119435,11.119435 0 0 0 11.12109,11.1191 11.119435,11.119435 0 0 0 11.11915,-11.1191 11.119435,11.119435 0 0 0 -11.11915,-11.1191 z m 39.62891,31.1093 a 11.472988,11.472988 0 0 0 -11.47265,11.4727 11.472988,11.472988 0 0 0 11.47265,11.4727 11.472988,11.472988 0 0 0 11.47266,-11.4727 11.472988,11.472988 0 0 0 -11.47266,-11.4727 z m -79.28711,0.1739 a 11.296212,11.296212 0 0 0 -11.29492,11.2968 11.296212,11.296212 0 0 0 11.29492,11.2969 11.296212,11.296212 0 0 0 11.29688,-11.2969 11.296212,11.296212 0 0 0 -11.29688,-11.2968 z m 39.6582,70.76556 a 18.482143,18.482143 0 0 0 -18.48242,18.4824 18.482143,18.482143 0 0 0 18.48242,18.4805 18.482143,18.482143 0 0 0 18.48047,-18.4805 18.482143,18.482143 0 0 0 -18.48047,-18.4824 z"
       id="rect6922-4" />
    <path
       style="fill:#333333;fill-opacity:1;stroke:none;stroke-width:6.5999999;stroke-linecap:round;stroke-linejoin:round;stroke-miterlimit:4;stroke-dasharray:none;stroke-opacity:1"
       d="m 938.47793,1263.3851 c -16.8409,0 -31.1131,10.4526 -36.8186,25.2334 l -10.5683,-10.5736 c -18.6589,-18.6589 -48.7047,-18.6589 -67.3636,0 l -42.3818,42.3819 -39.9313,-39.9313 c -18.6589,-18.6589 -48.705,-18.6589 -67.3639,0 l -11.4269,11.4326 c -18.6592,18.6583 -18.6592,48.699 0,67.3579 l 39.9315,39.9369 -38.8813,38.8811 c -18.6591,18.6588 -18.6591,48.699 0,67.3582 l 11.427,11.4323 c 18.6589,18.6588 48.7049,18.6588 67.3638,0 l 38.8811,-38.8811 41.3316,41.3317 c 18.6589,18.6588 48.7047,18.6588 67.3635,0 l 11.427,-11.4324 c 0.3481,-0.3481 0.6442,-0.7273 0.9791,-1.083 6.1643,13.7608 19.9259,23.3186 36.0311,23.3186 l 13.4127,0 c 18.1166,0 33.2705,-12.0857 37.9675,-28.6575 4.3432,17.1079 19.74517,29.7078 38.24107,29.7078 l 13.4126,0 c 21.8872,0 39.5048,-17.6176 39.5048,-39.5045 l 0,-187.7484 c 0,-21.8872 -17.6176,-39.5104 -39.5048,-39.5104 l -13.4126,0 c -18.1167,0 -33.27047,12.0914 -37.96747,28.6632 -4.3433,-17.1079 -19.745,-29.7134 -38.2411,-29.7134 l -13.4127,0 z m 6.1867,27.3832 c 14.2683,0 25.7529,11.485 25.7529,25.753 l 0,162.2962 c 0,14.2683 -11.4846,25.7529 -25.7529,25.7529 -14.268,0 -25.7529,-11.4846 -25.7529,-25.7529 l 0,-162.2962 c 0,-14.268 11.4849,-25.753 25.7529,-25.753 z m 88.12787,0 c 14.2683,0 25.753,11.485 25.753,25.753 l 0,162.2962 c 0,14.2683 -11.4847,25.7529 -25.753,25.7529 -14.268,0 -25.7582,-11.4846 -25.7582,-25.7529 l 0,-162.2962 c 0,-14.268 11.4902,-25.753 25.7582,-25.753 z m -327.50257,4.1408 c 6.5835,0 13.1654,2.5206 18.2099,7.5651 l 58.7756,58.7703 58.7702,-58.7703 c 5.0446,-5.0445 11.6318,-7.5651 18.2153,-7.5651 6.5832,0 13.1651,2.5206 18.2096,7.5651 10.0891,10.0892 10.0891,26.3305 0,36.4196 l -58.7756,58.7756 58.7756,58.7702 c 10.0891,10.0891 10.0891,26.3361 0,36.4249 -10.0888,10.0891 -26.3358,10.0891 -36.4249,0 l -58.7702,-58.7756 -58.7756,58.7756 c -10.0891,10.0891 -26.3307,10.0891 -36.4195,0 -10.0892,-10.0888 -10.0892,-26.3358 0,-36.4249 l 58.7699,-58.7702 -58.7699,-58.7756 c -10.0892,-10.0891 -10.0892,-26.3304 0,-36.4196 5.0445,-5.0445 11.6264,-7.5651 18.2096,-7.5651 z m 193.6835,65.4711 0,77.6801 -38.8373,-38.8374 38.8373,-38.8427 z"
       id="rect6590-3-3"
       inkscape:connector-curvature="0" />
    <path
       style="fill:#5fd35f;fill-opacity:1;stroke:none;stroke-width:10;stroke-linecap:round;stroke-linejoin:round;stroke-miterlimit:4;stroke-dasharray:none;stroke-opacity:1"
       d="m 114.31717,1739.5046 c -11.4363,0 -22.872405,4.3804 -31.635485,13.1435 l -10.031447,10.0314 c -17.526161,17.5262 -17.526161,45.7448 0,63.271 l 78.840292,78.8403 -78.840292,78.8418 c -17.526161,17.5262 -17.526161,45.7448 0,63.271 l 10.031447,10.0299 c 17.526155,17.5262 45.744805,17.5262 63.270955,0 l 78.84031,-78.8403 78.8403,78.8403 c 17.52615,17.5262 45.74629,17.5262 63.27244,0 l 10.02997,-10.0299 c 17.52616,-17.5262 17.52616,-45.7448 0,-63.271 l -78.8403,-78.8418 78.8403,-78.8403 c 17.52616,-17.5262 17.52616,-45.7448 0,-63.271 l -10.02997,-10.0314 c -17.52615,-17.5262 -45.74629,-17.5262 -63.27244,0 l -78.8403,78.8403 -78.84031,-78.8403 c -8.76307,-8.7631 -20.19919,-13.1435 -31.63547,-13.1435 z"
       id="rect11738"
       inkscape:connector-curvature="0" />
    <rect
       style="fill:#5fd35f;fill-opacity:1;stroke:none;stroke-width:10;stroke-linecap:round;stroke-linejoin:round;stroke-miterlimit:4;stroke-dasharray:none;stroke-opacity:1"
       id="rect11738-7"
       width="103.66488"
       height="341.93649"
       x="451.00571"
       y="1733.8225"
       ry="51.832439" />
    <rect
       style="fill:#5fd35f;fill-opacity:1;stroke:none;stroke-width:10;stroke-linecap:round;stroke-linejoin:round;stroke-miterlimit:4;stroke-dasharray:none;stroke-opacity:1"
       id="rect11738-7-3"
       width="103.66488"
       height="341.93649"
       x="615.59601"
       y="1733.8225"
       ry="51.832439" />
    <path
       style="fill:#333333;fill-opacity:1;stroke:none;stroke-width:6.5999999;stroke-linecap:round;stroke-linejoin:round;stroke-miterlimit:4;stroke-dasharray:none;stroke-opacity:1"
       d="m 3642.9997,559.95305 a 419.17032,419.17032 0 0 0 -419.176,419.177 419.17032,419.17032 0 0 0 0.4641,13.3528 419.17032,419.17032 0 0 0 -102.9162,-13.3528 419.17032,419.17032 0 0 0 -419.1768,419.15075 419.17032,419.17032 0 0 0 214.863,365.8159 l 0,686.9123 1.338,0 a 717.24693,710.26074 0 0 0 716.6559,693.8341 717.24693,710.26074 0 0 0 717.2462,-710.2751 717.24693,710.26074 0 0 0 -2.6491,-57.1685 l 0,-601.1591 a 419.17032,419.17032 0 0 0 238.8168,-377.9588 419.17032,419.17032 0 0 0 -419.1783,-419.17705 419.17032,419.17032 0 0 0 -107.8294,14.3045 419.17032,419.17032 0 0 0 0.7511,-14.2781 419.17032,419.17032 0 0 0 -419.177,-419.1771 l 0,0 z m -2.4184,138.0611 a 290.4861,290.4861 0 0 1 290.481,290.4806 290.4861,290.4861 0 0 1 -224.6146,282.60705 l 0,574.6832 c 153.1483,17.3387 293.3693,94.1044 390.4895,213.7825 l 0,-373.9969 a 290.4861,290.4861 0 0 1 -224.7684,-282.6066 290.4861,290.4861 0 0 1 290.4788,-290.4815 290.4861,290.4861 0 0 1 290.4813,290.4815 290.4861,290.4861 0 0 1 -224.4591,282.5819 l 0,744.2623 c 0,324.7901 -263.2969,588.0856 -588.0885,588.0885 -324.7899,0 -588.0855,-263.2984 -588.0877,-588.0885 0,-258.9794 0,-500.5794 0,-744.2623 a 290.4861,290.4861 0 0 1 -224.7938,-282.6083 290.4861,290.4861 0 0 1 290.4796,-290.4797 290.4861,290.4861 0 0 1 290.4808,290.4797 290.4861,290.4861 0 0 1 -224.4346,282.5568 l 0,374.8446 c 97.0478,-119.8302 237.2796,-196.7489 390.4895,-214.1927 l 0,-575.096 a 290.4861,290.4861 0 0 1 -224.6144,-282.55555 290.4861,290.4861 0 0 1 290.4806,-290.4806 z m -0.8165,144.0065 a 146.47911,146.47911 0 0 0 -146.5007,146.4741 146.47911,146.47911 0 0 0 146.5007,146.47475 146.47911,146.47911 0 0 0 146.4747,-146.47475 146.47911,146.47911 0 0 0 -146.4747,-146.4741 z m 522.041,409.80985 a 151.13656,151.13656 0 0 0 -151.1323,151.1335 151.13656,151.13656 0 0 0 151.1323,151.1332 151.13656,151.13656 0 0 0 151.1579,-151.1332 151.13656,151.13656 0 0 0 -151.1579,-151.1335 z m -1044.4686,2.292 a 148.80785,148.80785 0 0 0 -148.7904,148.8151 148.80785,148.80785 0 0 0 148.7904,148.8163 148.80785,148.80785 0 0 0 148.8169,-148.8163 148.80785,148.80785 0 0 0 -148.8169,-148.8151 z m 522.4276,932.2124 a 243.46993,243.46993 0 0 0 -243.4729,243.474 243.46993,243.46993 0 0 0 243.4729,243.4478 243.46993,243.46993 0 0 0 243.4484,-243.4478 243.46993,243.46993 0 0 0 -243.4484,-243.474 z"
       id="rect6551-3-6"
       inkscape:connector-curvature="0" />
    <path
       style="fill:#333333;fill-opacity:1;stroke:none;stroke-width:10;stroke-linecap:round;stroke-linejoin:round;stroke-miterlimit:4;stroke-dasharray:none;stroke-opacity:1"
       d="m 257.72122,2741.5003 c -76.70769,0 -138.46154,61.7538 -138.46154,138.4615 l 0,323.077 c 0,76.7077 61.75385,138.4615 138.46154,138.4615 76.70769,0 138.46154,-61.7538 138.46154,-138.4615 l 0,-323.077 c 0,-76.7077 -61.75385,-138.4615 -138.46154,-138.4615 z m 0,69.2308 c 38.35384,0 69.23077,30.8769 69.23077,69.2307 l 0,323.077 c 0,38.3539 -30.87693,69.2307 -69.23077,69.2307 -38.35385,0 -69.23077,-30.8768 -69.23077,-69.2307 l 0,-323.077 c 0,-38.3538 30.87692,-69.2307 69.23077,-69.2307 z"
       id="rect11738-7-6-7-9"
       inkscape:connector-curvature="0"
       inkscape:export-xdpi="90"
       inkscape:export-ydpi="90" />
    <path
       style="fill:#333333;fill-opacity:1;stroke:none;stroke-width:10;stroke-linecap:round;stroke-linejoin:round;stroke-miterlimit:4;stroke-dasharray:none;stroke-opacity:1"
       d="m -2759.4928,1016.8383 c -31.4534,0 -62.9062,12.0507 -87.0075,36.1519 -48.2024,48.2024 -48.2024,125.8123 0,174.0147 l 89.8324,89.8324 -89.8324,89.8345 c -48.2024,48.2024 -48.2024,125.8123 0,174.0147 48.2025,48.2024 125.8146,48.2024 174.017,0 l 89.8323,-89.8322 89.8324,89.8322 c 48.2024,48.2024 125.8147,48.2024 174.0171,0 48.2023,-48.2024 48.2023,-125.8123 0,-174.0147 l -89.8323,-89.8345 89.8323,-89.8324 c 48.2023,-48.2024 48.2023,-125.8123 0,-174.0147 -24.1013,-24.1012 -55.5563,-36.1519 -87.0097,-36.1519 -31.4534,0 -62.9063,12.0507 -87.0074,36.1519 l -89.8324,89.8323 -89.8323,-89.8323 c -24.1013,-24.1012 -55.5562,-36.1519 -87.0095,-36.1519 z m 4.1052,43.8576 c 21.4454,0 42.8912,8.2163 59.3238,24.6489 l 112.7989,112.7989 112.7989,-112.7989 c 32.8654,-32.8653 85.7825,-32.8653 118.6478,0 32.8653,32.8653 32.8653,85.7823 0,118.6476 l -112.799,112.799 112.799,112.7989 c 32.8653,32.8653 32.8653,85.7823 0,118.6476 -32.8653,32.8653 -85.7824,32.8653 -118.6478,0 l -112.7989,-112.7989 -112.7989,112.7989 c -32.8653,32.8653 -85.7824,32.8653 -118.6476,0 -32.8653,-32.8653 -32.8653,-85.7823 0,-118.6476 l 112.7989,-112.7989 -112.7989,-112.799 c -32.8653,-32.8653 -32.8653,-85.7823 0,-118.6476 16.4326,-16.4326 37.8783,-24.6489 59.3238,-24.6489 z"
       id="rect11738-7-6-7-2-3"
       inkscape:connector-curvature="0" />
    <path
       style="fill:#333333;fill-opacity:1;stroke:none;stroke-width:10;stroke-linecap:round;stroke-linejoin:round;stroke-miterlimit:4;stroke-dasharray:none;stroke-opacity:1"
       d="m -1883.2448,1016.8383 c -64.1474,0 -115.7895,51.6421 -115.7895,115.7895 l 0,368.421 c 0,64.1474 51.6421,115.7895 115.7895,115.7895 64.1473,0 115.7894,-51.6421 115.7894,-115.7895 l 0,-368.421 c 0,-64.1474 -51.6421,-115.7895 -115.7894,-115.7895 z m -0.7525,36.0917 c 43.7368,0 78.9474,35.5809 78.9474,79.78 l 0,366.7537 c 0,44.1989 -35.2106,79.7821 -78.9474,79.7821 -43.7369,0 -78.9474,-35.5832 -78.9474,-79.7821 l 0,-366.7537 c 0,-44.1991 35.2105,-79.78 78.9474,-79.78 z"
       id="rect11738-7-6-7-93"
       inkscape:connector-curvature="0" />
    <path
       style="fill:#333333;fill-opacity:1;stroke:none;stroke-width:10;stroke-linecap:round;stroke-linejoin:round;stroke-miterlimit:4;stroke-dasharray:none;stroke-opacity:1"
       d="m -391.71704,2741.5004 c -36.23493,0 -72.47022,13.8824 -100.2353,41.6475 -55.53014,55.5302 -55.53014,144.9404 0,200.4706 l 57.88088,57.8827 -57.88088,57.881 c -55.53014,55.53 -55.53014,144.9405 0,200.4706 55.53016,55.5301 144.9386,55.5301 200.46875,0 l 57.88272,-57.8827 57.88088,57.8827 c 55.53014,55.5301 144.940445,55.5301 200.470593,0 55.530148,-55.5301 55.530148,-144.9406 0,-200.4706 l -57.880876,-57.881 57.880876,-57.8827 c 55.530148,-55.5302 55.530148,-144.9404 0,-200.4706 -55.530148,-55.5301 -144.940453,-55.5301 -200.470593,0 l -57.88088,57.8827 -57.88272,-57.8827 c -27.76507,-27.7651 -63.99852,-41.6475 -100.23345,-41.6475 z m 9.50193,80.4433 c 18.11745,0 36.2351,6.9412 50.11764,20.8238 l 98.4966,98.4965 98.4966,-98.4965 c 27.76508,-27.7651 72.470226,-27.7651 100.235304,0 27.7650793,27.7651 27.7650793,72.4702 0,100.2353 l -98.496604,98.4984 98.496604,98.4967 c 27.7650793,27.765 27.7650793,72.4702 0,100.2353 -27.765078,27.7649 -72.470224,27.7649 -100.235304,0 l -98.4966,-98.4967 -98.4966,98.4967 c -27.76507,27.7649 -72.47022,27.7649 -100.2353,0 -27.76507,-27.7651 -27.76507,-72.4703 0,-100.2353 l 98.49661,-98.4967 -98.49661,-98.4984 c -27.76507,-27.7651 -27.76507,-72.4702 0,-100.2353 13.88255,-13.8826 32.00019,-20.8238 50.11766,-20.8238 z"
       id="rect11738-7-6-7-9-3"
       inkscape:connector-curvature="0"
       inkscape:export-xdpi="90"
       inkscape:export-ydpi="90" />
    <path
       inkscape:connector-curvature="0"
       style="fill:#333333;fill-opacity:1;stroke:none;stroke-width:10;stroke-linecap:round;stroke-linejoin:round;stroke-miterlimit:4;stroke-dasharray:none;stroke-opacity:1"
       d="m 587.50578,2741.5003 c -76.7077,0 -138.46156,61.7539 -138.46156,138.4616 l 0,323.0769 c 0,76.7077 61.75386,138.4615 138.46156,138.4615 76.7077,0 138.46156,-61.7538 138.46156,-138.4615 l 0,-323.0769 c 0,-76.7077 -61.75386,-138.4616 -138.46156,-138.4616 z m 0,69.2308 c 38.35385,0 69.23078,30.8769 69.23078,69.2308 l 0,323.0769 c 0,38.3539 -30.87693,69.2308 -69.23078,69.2308 -38.35385,0 -69.23078,-30.8769 -69.23078,-69.2308 l 0,-323.0769 c 0,-38.3539 30.87693,-69.2308 69.23078,-69.2308 z"
       id="rect11738-7-6-7-9-6"
       inkscape:export-xdpi="90"
       inkscape:export-ydpi="90" />
    <g
       id="g12660"
       transform="translate(5900,-6050)"
       inkscape:export-xdpi="40.865891"
       inkscape:export-ydpi="40.865891">
      <path
         sodipodi:nodetypes="cc"
         inkscape:connector-curvature="0"
         id="path12521-65"
         d="m -8969.6555,9566.6623 c 521.9604,4.3335 689.2382,-642.3578 1096.2159,-886.2392"
         style="fill:none;fill-rule:evenodd;stroke:#333333;stroke-width:400;stroke-linecap:round;stroke-linejoin:round;stroke-miterlimit:4;stroke-dasharray:none;stroke-opacity:1" />
      <g
         id="g12651">
        <path
           style="fill:none;fill-rule:evenodd;stroke:#333333;stroke-width:400;stroke-linecap:round;stroke-linejoin:round;stroke-miterlimit:4;stroke-dasharray:none;stroke-opacity:1"
           d="m -8537.9254,8685.6471 c 129.8827,538.4269 1032.4873,1365.0469 859.0732,-20.2133"
           id="path12523-1-4"
           inkscape:connector-curvature="0"
           sodipodi:nodetypes="cc" />
        <path
           style="fill:none;fill-rule:evenodd;stroke:#333333;stroke-width:400;stroke-linecap:round;stroke-linejoin:round;stroke-miterlimit:4;stroke-dasharray:none;stroke-opacity:1"
           d="m -7691.8069,9303.3701 c 0,0 767.8272,613.4937 590.3726,-620.2439"
           id="path12523-2-9"
           inkscape:connector-curvature="0"
           sodipodi:nodetypes="cc" />
        <path
           style="fill:none;fill-rule:evenodd;stroke:#ffffff;stroke-width:200;stroke-linecap:round;stroke-linejoin:round;stroke-miterlimit:4;stroke-dasharray:none;stroke-opacity:1"
           d="m -8537.9254,8685.6471 c 129.8827,538.4269 1032.4873,1365.0469 859.0732,-20.2133"
           id="path12523-1"
           inkscape:connector-curvature="0"
           sodipodi:nodetypes="cc" />
        <path
           style="fill:none;fill-rule:evenodd;stroke:#ffffff;stroke-width:200;stroke-linecap:round;stroke-linejoin:round;stroke-miterlimit:4;stroke-dasharray:none;stroke-opacity:1"
           d="m -8969.6555,9566.6623 c 521.9604,4.3335 689.2382,-642.3578 1096.2159,-886.2392"
           id="path12521"
           inkscape:connector-curvature="0"
           sodipodi:nodetypes="cc" />
        <path
           style="fill:none;fill-rule:evenodd;stroke:#ffffff;stroke-width:200;stroke-linecap:round;stroke-linejoin:round;stroke-miterlimit:4;stroke-dasharray:none;stroke-opacity:1"
           d="m -7691.8069,9303.3701 c 0,0 767.8272,613.4937 590.3726,-620.2439"
           id="path12523-2"
           inkscape:connector-curvature="0"
           sodipodi:nodetypes="cc" />
        <circle
           style="fill:#ffffff;fill-opacity:1;stroke:#333333;stroke-width:104.75795746;stroke-linecap:round;stroke-linejoin:round;stroke-miterlimit:4;stroke-dasharray:none;stroke-opacity:1"
           id="path12634"
           cx="-7672.0845"
           cy="8233.1064"
           r="147.621" />
        <circle
           style="fill:#ffffff;fill-opacity:1;stroke:#333333;stroke-width:104.75795746;stroke-linecap:round;stroke-linejoin:round;stroke-miterlimit:4;stroke-dasharray:none;stroke-opacity:1"
           id="path12634-3"
           cx="-7142.7651"
           cy="8204.8223"
           r="147.621" />
      </g>
    </g>
  </g>
</svg>
